<?xml version="1.0" encoding="iso-8859-1"?>
<!-- Generator: Adobe Illustrator 19.0.0, SVG Export Plug-In . SVG Version: 6.00 Build 0)  -->
<svg version="1.1" id="Capa_1" xmlns="http://www.w3.org/2000/svg" xmlns:xlink="http://www.w3.org/1999/xlink" x="0px" y="0px"
	 viewBox="0 0 512 512" style="enable-background:new 0 0 512 512;" xml:space="preserve">
<g>
	<g>
		<path d="M423.385,0H147.692c-24.431,0-44.308,19.876-44.308,44.308v9.846H88.615c-24.431,0-44.308,19.876-44.308,44.308
			s19.876,44.308,44.308,44.308h14.769v68.923H88.615c-24.431,0-44.308,19.876-44.308,44.308s19.876,44.308,44.308,44.308h14.769
			v68.923H88.615c-24.431,0-44.308,19.876-44.308,44.308c0,24.431,19.876,44.308,44.308,44.308h14.769v9.846
			c0,24.431,19.876,44.308,44.308,44.308h275.692c24.431,0,44.308-19.876,44.308-44.308V44.308C467.692,19.876,447.816,0,423.385,0z
			 M103.385,428.308H88.615c-8.144,0-14.769-6.625-14.769-14.769s6.625-14.769,14.769-14.769h14.769V428.308z M103.385,270.769
			H88.615c-8.144,0-14.769-6.625-14.769-14.769s6.625-14.769,14.769-14.769h14.769V270.769z M103.385,113.231H88.615
			c-8.144,0-14.769-6.625-14.769-14.769s6.625-14.769,14.769-14.769h14.769V113.231z M438.154,467.692
			c0,8.144-6.625,14.769-14.769,14.769H147.692c-8.144,0-14.769-6.625-14.769-14.769V44.308c0-8.144,6.625-14.769,14.769-14.769
			h275.692c8.144,0,14.769,6.625,14.769,14.769V467.692z"/>
	</g>
</g>
<g>
	<g>
		<path d="M393.846,64H177.231c-8.157,0-14.769,6.613-14.769,14.769v59.077c0,8.157,6.613,14.769,14.769,14.769h216.615
			c8.157,0,14.769-6.613,14.769-14.769V78.769C408.615,70.613,402.003,64,393.846,64z M379.077,123.077H192V93.538h187.077V123.077z
			"/>
	</g>
</g>
<g>
	<g>
		<path d="M393.846,182.154H177.231c-8.157,0-14.769,6.613-14.769,14.769s6.613,14.769,14.769,14.769h216.615
			c8.157,0,14.769-6.613,14.769-14.769S402.003,182.154,393.846,182.154z"/>
	</g>
</g>
<g>
	<g>
		<path d="M354.462,241.231H216.615c-8.156,0-14.769,6.613-14.769,14.769s6.613,14.769,14.769,14.769h137.846
			c8.157,0,14.769-6.613,14.769-14.769S362.618,241.231,354.462,241.231z"/>
	</g>
</g>
<g>
</g>
<g>
</g>
<g>
</g>
<g>
</g>
<g>
</g>
<g>
</g>
<g>
</g>
<g>
</g>
<g>
</g>
<g>
</g>
<g>
</g>
<g>
</g>
<g>
</g>
<g>
</g>
<g>
</g>
</svg>
